C:\Users\israe\Dropbox\PhDWork\ExperimentalData\subject14\145\P14S145W04_filtered35.mot
nRows=18
nColumns=28

name C:\Users\israe\Dropbox\PhDWork\ExperimentalData\subject14\145\P14S145W04_filtered35.mot
datacolumns 28
datarows 18
range 1.0550000000 1.0720000000
endheader
time	ground_force_1_vx	ground_force_1_vy	ground_force_1_vz	ground_force_1_px	ground_force_1_py	ground_force_1_pz	ground_moment_1_mx	ground_moment_1_my	ground_moment_1_mz	ground_force_2_vx	ground_force_2_vy	ground_force_2_vz	ground_force_2_px	ground_force_2_py	ground_force_2_pz	ground_moment_2_mx	ground_moment_2_my	ground_moment_2_mz	ground_force_3_vx	ground_force_3_vy	ground_force_3_vz	ground_force_3_px	ground_force_3_py	ground_force_3_pz	ground_moment_3_mx	ground_moment_3_my	ground_moment_3_mz
        1.0550000000	       -0.9449043575	        1.1263192649	        2.9661636590	        0.1988394961	        0.0000558755	       -0.3004071324	        0.0772376317	       -0.2149885882	        0.1276530587	       18.8122809246	      812.2427340357	     -174.9712225668	        0.2029003516	       -0.0000795827	        0.4543649445	      169.0573264476	      -24.1711884090	      -67.0976568229	       -0.0000000000	        0.0000000000	       -0.0000000000	        0.2076431971	        0.0000770316	        1.3583900146	        0.0000000000	        0.0000000000	        0.0000000000	
        1.0560000000	       -0.7728649260	        8.2231963823	        2.7215775276	        0.1988394961	        0.0000558755	       -0.3004071324	        1.0537633562	       -0.2810061746	        0.5005643966	       18.1668693000	      808.6006914920	     -176.5396687244	        0.2029003516	       -0.0000795827	        0.4543649445	      168.3778542682	      -24.0889233132	      -66.7123768244	       -0.0000000000	        0.0000000000	       -0.0000000000	        0.2076431971	        0.0000770316	        1.3583900146	        0.0000000000	        0.0000000000	        0.0000000000	
        1.0570000000	       -0.4479986960	       17.9207092438	        2.1098536599	        0.1988394961	        0.0000558755	       -0.3004071324	        2.3953144591	       -0.3523291827	        1.0038051462	       17.5232131461	      804.6852255543	     -178.0746169670	        0.2029003516	       -0.0000795827	        0.4543649445	      167.6464975136	      -24.0004469643	      -66.3080409488	       -0.0000000000	        0.0000000000	       -0.0000000000	        0.2076431971	        0.0000770316	        1.3583900146	        0.0000000000	        0.0000000000	        0.0000000000	
        1.0580000000	        0.0729333141	       30.5684331126	        1.0189117129	        0.1988394961	        0.0000558755	       -0.3004071324	        4.1527333874	       -0.4255842467	        1.6533135423	       16.8787507128	      800.4907525970	     -179.5748682222	        0.2029003516	       -0.0000795827	        0.4543649445	      166.8622154176	      -23.9051639002	      -65.8839790824	       -0.0000000000	        0.0000000000	       -0.0000000000	        0.2076431971	        0.0000770316	        1.3583900146	        0.0000000000	        0.0000000000	        0.0000000000	
        1.0590000000	        0.8394498818	       46.4775693082	       -0.6424787145	        0.1988394961	        0.0000558755	       -0.3004071324	        6.3720703024	       -0.4989404200	        2.4624926143	       16.2296121970	      796.0117812623	     -181.0392266040	        0.2029003516	       -0.0000795827	        0.4543649445	      166.0237961153	      -23.8023619169	      -65.4392183533	       -0.0000000000	        0.0000000000	       -0.0000000000	        0.2076431971	        0.0000770316	        1.3583900146	        0.0000000000	        0.0000000000	        0.0000000000	
        1.0600000000	        1.9070461551	       65.9467346968	       -2.8923568084	        0.1988394961	        0.0000558755	       -0.3004071324	        9.0983454759	       -0.5756349864	        3.4433527096	       15.5722066391	      791.2428588891	     -182.4664283257	        0.2029003516	       -0.0000795827	        0.4543649445	      165.1296422951	      -23.6913139718	      -64.9725920198	       -0.0000000000	        0.0000000000	       -0.0000000000	        0.2076431971	        0.0000770316	        1.3583900146	        0.0000000000	        0.0000000000	        0.0000000000	
        1.0610000000	        3.3293217256	       89.2514181279	       -5.6481790868	        0.1988394961	        0.0000558755	       -0.3004071324	       12.3741733827	       -0.6647085724	        4.6060594299	       14.9053824991	      786.1809343685	     -183.8545144301	        0.2029003516	       -0.0000795827	        0.4543649445	      164.1778072501	      -23.5714372221	      -64.4830194413	       -0.0000000000	        0.0000000000	       -0.0000000000	        0.2076431971	        0.0000770316	        1.3583900146	        0.0000000000	        0.0000000000	        0.0000000000	
        1.0620000000	        5.1488215137	      116.5857685601	       -8.7491300931	        0.1988394961	        0.0000558755	       -0.3004071324	       16.2313685147	       -0.7791480889	        5.9563508925	       14.2303260385	      780.8279798782	     -185.2000884026	        0.2029003516	       -0.0000795827	        0.4543649445	      163.1664662830	      -23.4423174879	      -63.9698364014	       -0.0000000000	        0.0000000000	       -0.0000000000	        0.2076431971	        0.0000770316	        1.3583900146	       -0.0000000000	        0.0000000000	        0.0000000000	
        1.0630000000	        7.3973992958	      148.0055238326	      -11.9781666871	        0.1988394961	        0.0000558755	       -0.3004071324	       20.6830054939	       -0.9347740653	        7.4927635885	       13.5483352428	      775.1906788947	     -186.4978868535	        0.2029003516	       -0.0000795827	        0.4543649445	      162.0945637711	      -23.3036767365	      -63.4329114894	       -0.0000000000	        0.0000000000	        0.0000000000	        0.2076431971	        0.0000770316	        1.3583900146	       -0.0000000000	        0.0000000000	       -0.0000000000	
        1.0640000000	       10.0987517418	      183.3900924777	      -15.0617790309	        0.1988394961	        0.0000558755	       -0.3004071324	       25.7189102394	       -1.1494387318	        9.2046339110	       12.8601838909	      769.2749972516	     -187.7415972700	        0.2029003516	       -0.0000795827	        0.4543649445	      160.9618953164	      -23.1553208108	      -62.8724971101	        0.0000000000	        0.0000000000	        0.0000000000	        0.2076431971	        0.0000770316	        1.3583900146	       -0.0000000000	       -0.0000000000	       -0.0000000000	
        1.0650000000	       13.2643730826	      222.4103892558	      -17.6926262969	        0.1988394961	        0.0000558755	       -0.3004071324	       31.3012250036	       -1.4412375704	       11.0709828922	       12.1671620331	      763.0799702604	     -188.9255059871	        0.2029003516	       -0.0000795827	        0.4543649445	      159.7683591326	      -22.9970494200	      -62.2889170922	        0.0000000000	        0.0000000000	        0.0000000000	        0.2076431971	        0.0000770316	        1.3583900146	       -0.0000000000	       -0.0000000000	       -0.0000000000	
        1.0660000000	       16.8906131653	      264.5079525750	      -19.5730759310	        0.1988394961	        0.0000558755	       -0.3004071324	       37.3602954623	       -1.8265570993	       13.0605005145	       11.4712254800	      756.5977326729	     -190.0443449727	        0.2029003516	       -0.0000795827	        0.4543649445	      158.5133531470	      -22.8287773120	      -61.6821079480	        0.0000000000	        0.0000000000	        0.0000000000	        0.2076431971	        0.0000770316	        1.3583900146	       -0.0000000000	       -0.0000000000	       -0.0000000000	
        1.0670000000	       20.9569396925	      308.8983160167	      -20.4380915427	        0.1988394961	        0.0000558755	       -0.3004071324	       43.7945468581	       -2.3179450216	       15.1324539231	       10.7750845189	      749.8171080789	     -191.0911500845	        0.2029003516	       -0.0000795827	        0.4543649445	      157.1958765608	      -22.6507860321	      -61.0513481725	        0.0000000000	        0.0000000000	        0.0000000000	        0.2076431971	        0.0000770316	        1.3583900146	       -0.0000000000	       -0.0000000000	       -0.0000000000	
        1.0680000000	       25.4174446425	      354.5986530761	      -20.0659849564	        0.1988394961	        0.0000558755	       -0.3004071324	       50.4743539001	       -2.9221782715	       17.2384594912	       10.0830450358	      742.7240027118	     -192.0567490801	        0.2029003516	       -0.0000795827	        0.4543649445	      155.8145871554	      -22.4636160861	      -60.3954924108	        0.0000000000	        0.0000000000	        0.0000000000	        0.2076431971	        0.0000770316	        1.3583900146	       -0.0000000000	       -0.0000000000	       -0.0000000000	
        1.0690000000	       30.1916915370	      400.4791699624	      -18.2901230753	        0.1988394961	        0.0000558755	       -0.3004071324	       57.2484134453	       -3.6391019393	       19.3254872909	        9.4003349781	      735.3014820135	     -192.9313267068	        0.2029003516	       -0.0000795827	        0.4543649445	      154.3677577942	      -22.2676385021	      -59.7134071485	        0.0000000000	        0.0000000000	        0.0000000000	        0.2076431971	        0.0000770316	        1.3583900146	       -0.0000000000	       -0.0000000000	       -0.0000000000	
        1.0700000000	       35.1603002718	      445.3390633904	      -14.9925754115	        0.1988394961	        0.0000558755	       -0.3004071324	       63.9534127187	       -4.4606318108	       21.3399251446	        8.7310046192	      727.5337129800	     -193.7039298294	        0.2029003516	       -0.0000795827	        0.4543649445	      152.8535410152	      -22.0628011020	      -59.0043086083	        0.0000000000	        0.0000000000	        0.0000000000	        0.2076431971	        0.0000770316	        1.3583900146	       -0.0000000000	       -0.0000000000	       -0.0000000000	
        1.0710000000	       40.1625110130	      487.9975034987	      -10.0872132792	        0.1988394961	        0.0000558755	       -0.3004071324	       70.4264351025	       -5.3706650241	       23.2319148001	        8.0774522244	      719.4083541711	     -194.3615503986	        0.2029003516	       -0.0000795827	        0.4543649445	      151.2700095904	      -21.8487035779	      -58.2678778842	        0.0000000000	        0.0000000000	        0.0000000000	        0.2076431971	        0.0000770316	        1.3583900146	       -0.0000000000	       -0.0000000000	       -0.0000000000	
        1.0720000000	       45.0025700951	      527.3862516085	       -3.5182533685	        0.1988394961	        0.0000558755	       -0.3004071324	       76.5178890010	       -6.3464053357	       24.9593238677	        7.4414725126	      710.9141451414	     -194.8920384465	        0.2029003516	       -0.0000795827	        0.4543649445	      149.6149045439	      -21.6248467215	      -57.5039911377	        0.0000000000	        0.0000000000	        0.0000000000	        0.2076431971	        0.0000770316	        1.3583900146	       -0.0000000000	       -0.0000000000	       -0.0000000000	
